<svg width="72.570984" height="34.353760" viewBox="0 0 72.571 34.3538" fill="none" xmlns="http://www.w3.org/2000/svg" xmlns:xlink="http://www.w3.org/1999/xlink">
	<desc>
			Created with Pixso.
	</desc>
	<defs/>
	<path id="Page-1" d="M20.32 19.31L31.06 13.95L4.44 0.68C-1.48 3.63 -1.48 8.43 4.44 11.38L20.32 19.31ZM46.06 15.87C51.85 17.23 60.03 16.27 66.06 13.26C73.33 9.64 74.72 4.47 69.16 1.69C63.58 -1.08 53.18 -0.39 45.93 3.24C39.9 6.24 38 10.32 40.7 13.21C32.25 17.41 3.64 31.67 3.64 31.67L9.01 34.35L35.12 21.33L61.23 34.35L66.6 31.67L40.49 18.66L46.06 15.87Z" fill="#FD0B7D" fill-opacity="1.000000" fill-rule="evenodd"/>
</svg>
