<svg width="78.787872" height="34.684570" viewBox="0 0 78.7879 34.6846" fill="none" xmlns="http://www.w3.org/2000/svg" xmlns:xlink="http://www.w3.org/1999/xlink">
	<desc>
			Created with Pixso.
	</desc>
	<defs/>
	<path id="Page-1" d="M78.78 18.91C78.78 20.66 76.07 22.07 72.72 22.07L6.06 22.07C2.71 22.07 0 20.66 0 18.91C0 17.17 2.71 15.76 6.06 15.76L72.72 15.76C76.07 15.76 78.78 17.17 78.78 18.91ZM15.15 25.22L6.06 25.22C6.06 30.44 14.2 34.68 24.24 34.68L54.54 34.68C64.58 34.68 72.72 30.44 72.72 25.22L15.15 25.22ZM12.12 12.61L6.06 12.61L6.06 6.3C6.06 2.82 11.48 0 18.18 0L60.6 0C67.3 0 72.72 2.82 72.72 6.3L72.72 12.61L12.12 12.61ZM60.6 7.88C60.6 8.75 61.96 9.45 63.63 9.45C65.3 9.45 66.66 8.75 66.66 7.88C66.66 7.01 65.3 6.3 63.63 6.3C61.96 6.3 60.6 7.01 60.6 7.88ZM48.48 4.72C48.48 5.6 49.84 6.3 51.51 6.3C53.18 6.3 54.54 5.6 54.54 4.72C54.54 3.85 53.18 3.15 51.51 3.15C49.84 3.15 48.48 3.85 48.48 4.72ZM36.36 7.88C36.36 8.75 37.72 9.45 39.39 9.45C41.06 9.45 42.42 8.75 42.42 7.88C42.42 7.01 41.06 6.3 39.39 6.3C37.72 6.3 36.36 7.01 36.36 7.88ZM24.24 4.72C24.24 5.6 25.59 6.3 27.27 6.3C28.94 6.3 30.3 5.6 30.3 4.72C30.3 3.85 28.94 3.15 27.27 3.15C25.59 3.15 24.24 3.85 24.24 4.72ZM12.12 7.88C12.12 8.75 13.47 9.45 15.15 9.45C16.82 9.45 18.18 8.75 18.18 7.88C18.18 7.01 16.82 6.3 15.15 6.3C13.47 6.3 12.12 7.01 12.12 7.88Z" fill="#FD0B7D" fill-opacity="1.000000" fill-rule="evenodd"/>
</svg>
